# xmcd CD database file
#
# Track frame offsets:
#	150
#	20680
#	37731
#	54589
#	72621
#	91211
#	108089
#	125643
#	142961
#	163149
#	182919
#	203115
#
# Disc length: 3029 seconds
#
# Revision: 0
# Processed by: cddbd v1.5PL3 Copyright (c) Steve Scherf et al.
# Submitted via: CDex 1.51
#
DISCID=a70bd30c
DTITLE=Ricardo Montaner - Prohibido Olvidar
DYEAR=2003
DGENRE=New Age
TTITLE0=Atame
TTITLE1=Que Ganas
TTITLE2=Desesperanza
TTITLE3=Parado de Manos
TTITLE4=De Vez en cuando la Muchacha
TTITLE5=No me puedo aguantar
TTITLE6=Republica Alegria
TTITLE7=En que Queda
TTITLE8=El llanto de la Luna
TTITLE9=Prohibido Olvidar
TTITLE10=No me puedo aguantar (version Dance)
TTITLE11=Ay Amor
EXTD=YEAR: 2003
EXTT0=
EXTT1=
EXTT2=
EXTT3=
EXTT4=
EXTT5=
EXTT6=
EXTT7=
EXTT8=
EXTT9=
EXTT10=
EXTT11=
PLAYORDER=
